<svg width="160" height="160" viewBox="0 0 160 160" fill="none" xmlns="http://www.w3.org/2000/svg">
<rect x="2.5" y="2.5" width="155" height="155" rx="77.5" fill="white"/>
<rect x="2.5" y="2.5" width="155" height="155" rx="77.5" stroke="#E57C26" stroke-width="5"/>
<path fill-rule="evenodd" clip-rule="evenodd" d="M42.5 44.5833C42.5 44.0308 42.7195 43.5009 43.1102 43.1102C43.5009 42.7195 44.0308 42.5 44.5833 42.5H63.3333C63.8859 42.5 64.4158 42.7195 64.8065 43.1102C65.1972 43.5009 65.4167 44.0308 65.4167 44.5833V63.3333C65.4167 63.8859 65.1972 64.4158 64.8065 64.8065C64.4158 65.1972 63.8859 65.4167 63.3333 65.4167H44.5833C44.0308 65.4167 43.5009 65.1972 43.1102 64.8065C42.7195 64.4158 42.5 63.8859 42.5 63.3333V44.5833ZM94.5833 96.6667C94.5833 96.1141 94.8028 95.5842 95.1935 95.1935C95.5842 94.8028 96.1141 94.5833 96.6667 94.5833H115.417C115.969 94.5833 116.499 94.8028 116.89 95.1935C117.281 95.5842 117.5 96.1141 117.5 96.6667V115.417C117.5 115.969 117.281 116.499 116.89 116.89C116.499 117.281 115.969 117.5 115.417 117.5H96.6667C96.1141 117.5 95.5842 117.281 95.1935 116.89C94.8028 116.499 94.5833 115.969 94.5833 115.417V96.6667ZM93.3146 90.3687L86.6813 83.7354L83.7354 86.6813L90.3687 93.3146L93.3146 90.3687ZM75.1604 72.2146L83.4458 80.5L80.5 83.4479L72.2146 75.1604V83.9479H68.0479V68.0479H83.9479V72.2146H75.1604Z" fill="#E57C26"/>
</svg>
