<svg width="160" height="160" viewBox="0 0 160 160" fill="none" xmlns="http://www.w3.org/2000/svg">
<rect x="2.5" y="2.5" width="155" height="155" rx="77.5" fill="white"/>
<rect x="2.5" y="2.5" width="155" height="155" rx="77.5" stroke="#E57C26" stroke-width="5"/>
<path d="M84.1663 117.5L87.708 83.0208C83.7497 81.9792 80.7636 80.6083 78.7497 78.9083C76.7358 77.2083 74.7219 75.35 72.708 73.3333L62.8122 83.125L71.6663 91.9792V117.5H63.333V95.625L60.1038 92.7083L60.833 98.3333L45.5205 118.021L38.958 112.917L52.083 96.0417L46.1455 84.375C45.59 83.1945 45.2775 81.7195 45.208 79.95C45.1386 78.1806 45.7288 76.6694 46.9788 75.4167L60.9372 61.6667C61.7705 60.8333 62.69 60.2083 63.6955 59.7917C64.7011 59.375 65.7261 59.1667 66.7705 59.1667C68.4372 59.1667 69.7566 59.4792 70.7288 60.1042C71.7011 60.7292 72.3608 61.2153 72.708 61.5625L81.0413 69.7917C82.9163 71.6667 85.208 73.1417 87.9163 74.2167C90.6247 75.2917 93.5413 75.8306 96.6663 75.8333H103.541C105.139 75.8333 106.527 76.3708 107.708 77.4458C108.889 78.5208 109.548 79.8583 109.687 81.4583L112.396 107.917C113.298 108.472 114.027 109.219 114.583 110.158C115.139 111.097 115.416 112.156 115.416 113.333C115.416 115.069 114.808 116.546 113.591 117.763C112.375 118.979 110.9 119.586 109.166 119.583C107.433 119.581 105.94 118.974 104.687 117.763C103.434 116.551 102.809 115.075 102.812 113.333C102.812 112.153 103.09 111.093 103.646 110.154C104.201 109.215 104.965 108.469 105.937 107.917L105.416 102.917H91.8747L90.4163 117.5H84.1663ZM82.083 61.25C79.7913 61.25 77.8302 60.4347 76.1997 58.8042C74.5691 57.1736 73.7525 55.2111 73.7497 52.9167C73.7469 50.6222 74.5636 48.6611 76.1997 47.0333C77.8358 45.4056 79.7969 44.5889 82.083 44.5833C84.3691 44.5778 86.3316 45.3945 87.9705 47.0333C89.6094 48.6722 90.4247 50.6333 90.4163 52.9167C90.408 55.2 89.5927 57.1625 87.9705 58.8042C86.3483 60.4458 84.3858 61.2611 82.083 61.25ZM92.4997 96.6667H104.791L103.333 82.0833H94.0622L92.4997 96.6667Z" fill="#E57C26"/>
</svg>
