<svg width="160" height="160" viewBox="0 0 160 160" fill="none" xmlns="http://www.w3.org/2000/svg">
<rect x="2.5" y="2.5" width="155" height="155" rx="77.5" fill="white"/>
<rect x="2.5" y="2.5" width="155" height="155" rx="77.5" stroke="#E57C26" stroke-width="5"/>
<path d="M126.94 32.025C126.65 31.3026 126.092 30.7198 125.383 30.3979C124.675 30.0759 123.869 30.0397 123.134 30.2967C122.399 30.5537 121.792 31.0841 121.438 31.7776C121.084 32.471 121.011 33.2742 121.235 34.02C125.88 47.37 116.66 57.34 109.63 62.68L106.79 58.61C105.835 57.245 103.7 56.11 102.04 56.09L86.0998 56.16C84.1525 56.2183 82.2572 56.8023 80.6147 57.85L33.6448 90.785C32.5522 91.5538 31.8088 92.7242 31.5774 94.0399C31.3459 95.3556 31.6452 96.7095 32.4098 97.805L53.7547 128.345C55.3547 130.62 57.9097 130.345 60.1898 128.755L107.16 95.815C108.51 94.86 110.07 92.8 110.62 91.225L115.61 75.5C116.16 73.93 115.825 71.535 114.87 70.17L113.14 67.69C122.58 60.455 132.38 47.67 126.94 32.025ZM105.085 78.815C103.336 80.0356 101.175 80.5127 99.0752 80.1415C96.9754 79.7703 95.1087 78.5811 93.8848 76.835C92.6594 75.0833 92.1791 72.9169 92.5494 70.8115C92.9197 68.706 94.1103 66.8335 95.8597 65.605C97.2321 64.6462 98.8693 64.1391 100.543 64.1544C102.217 64.1696 103.845 64.7064 105.2 65.69C103.84 66.51 102.905 66.99 102.73 67.065C102.11 67.3605 101.609 67.8578 101.309 68.4754C101.009 69.0929 100.927 69.7941 101.077 70.4641C101.228 71.134 101.602 71.733 102.137 72.1629C102.673 72.5927 103.338 72.8279 104.025 72.83C104.458 72.83 104.886 72.7317 105.31 72.535C106.283 72.0783 107.315 71.5283 108.405 70.885C108.651 72.3852 108.471 73.9244 107.884 75.3268C107.296 76.7291 106.327 77.938 105.085 78.815Z" fill="#E57C26"/>
</svg>
