<svg width="160" height="160" viewBox="0 0 160 160" fill="none" xmlns="http://www.w3.org/2000/svg">
<rect x="2.5" y="2.5" width="155" height="155" rx="77.5" fill="white"/>
<rect x="2.5" y="2.5" width="155" height="155" rx="77.5" stroke="#E57C26" stroke-width="5"/>
<path d="M117.5 84.1667C120 84.1667 122.083 85 123.333 86.6667C125 88.3334 125.833 90.4167 125.833 92.5L92.4997 105L63.333 96.6667V59.1667H71.2497L101.666 70.4167C103.75 71.25 105 72.9167 105 75C105 76.25 104.583 77.5 103.75 78.3334C102.916 79.1667 101.666 80 99.9997 80H88.333L81.2497 77.0834L79.9997 80.8334L88.333 84.1667H117.5ZM38.333 59.1667H54.9997V105H38.333V59.1667Z" fill="#E57C26"/>
</svg>
