   <svg
                              xmlns="http://www.w3.org/2000/svg"
                              width="25"
                              height="25"
                              viewBox="0 0 18 18"
                            >
                              <defs>
                                <style>
                                  {` 
                                .a {
                                  fill: #4285f4;
                                }
                                .b {
                                  fill: #34a853;
                                }
                                .c {
                                  fill: #fbbc05;
                                }
                                .d {
                                  fill: #eb4335;
                                }
                                `}
                                </style>
                              </defs>
                              <path
                                className="a"
                                d="M139.366,108.6a7.565,7.565,0,0,0-.194-1.84H130.55v3.34h5.061a4.385,4.385,0,0,1-1.878,2.92l-.017.112,2.726,2.07.189.018a8.712,8.712,0,0,0,2.735-6.62"
                                transform="translate(-121.366 -99.401)"
                              />
                              <path
                                className="b"
                                d="M22.129,163.59a8.858,8.858,0,0,0,6.082-2.18l-2.9-2.2a5.679,5.679,0,0,1-8.408-2.84l-.108.009-2.835,2.15-.037.1a9.2,9.2,0,0,0,8.2,4.96"
                                transform="translate(-12.945 -145.59)"
                              />
                              <path
                                className="c"
                                d="M3.959,77.176a5.441,5.441,0,0,1-.306-1.78,5.716,5.716,0,0,1,.3-1.78L3.944,73.5l-2.87-2.185-.094.044a8.821,8.821,0,0,0,0,8.08l2.98-2.26"
                                transform="translate(0 -66.396)"
                              />
                              <path
                                className="d"
                                d="M22.129,3.48A5.145,5.145,0,0,1,25.68,4.82l2.592-2.48A8.922,8.922,0,0,0,22.129,0a9.2,9.2,0,0,0-8.2,4.96l2.969,2.26a5.541,5.541,0,0,1,5.235-3.74"
                                transform="translate(-12.945)"
                              />
                            </svg>